<?xml version="1.0" standalone="no"?>
<!DOCTYPE svg PUBLIC "-//W3C//DTD SVG 20010904//EN"
 "http://www.w3.org/TR/2001/REC-SVG-20010904/DTD/svg10.dtd">
<svg version="1.0" xmlns="http://www.w3.org/2000/svg"
 width="700.000000pt" height="700.000000pt" viewBox="0 0 700.000000 700.000000"
 preserveAspectRatio="xMidYMid meet">
<metadata>
Created by potrace 1.14, written by Peter Selinger 2001-2017
</metadata>
<g transform="translate(0.000000,700.000000) scale(0.100000,-0.100000)"
fill="#000000" stroke="none">
<path d="M3130 6990 c-30 -4 -80 -11 -110 -14 -87 -11 -218 -35 -310 -57 -47
-12 -92 -22 -100 -24 -94 -19 -335 -101 -505 -173 -76 -32 -255 -121 -337
-168 -80 -46 -308 -191 -318 -203 -3 -3 -23 -19 -45 -35 -244 -178 -508 -440
-706 -701 -226 -297 -411 -649 -529 -1005 -42 -126 -104 -364 -115 -442 -4
-24 -8 -45 -10 -48 -2 -3 -7 -33 -10 -65 -4 -33 -9 -62 -10 -66 -20 -32 -29
-714 -12 -869 14 -129 32 -250 47 -310 5 -19 11 -48 14 -65 20 -114 95 -358
164 -530 180 -453 433 -836 781 -1186 436 -436 960 -742 1546 -903 141 -38
344 -81 440 -92 33 -3 69 -8 80 -10 93 -19 557 -26 720 -11 1297 118 2416 936
2923 2137 107 254 208 620 236 855 3 28 9 68 12 89 13 80 15 126 18 361 3 214
-1 329 -18 460 -3 22 -8 58 -11 80 -68 550 -320 1156 -679 1630 -134 177 -343
397 -516 544 -47 39 -92 78 -100 85 -32 30 -245 178 -333 232 -98 61 -375 205
-467 243 -181 75 -500 179 -595 194 -16 3 -64 12 -105 20 -75 15 -99 20 -195
32 -27 4 -61 9 -75 12 -41 9 -711 12 -770 3z m583 -74 c60 -4 141 -11 180 -16
40 -5 78 -10 86 -10 8 0 1 -10 -15 -22 -54 -43 -177 -178 -222 -243 -15 -22
-32 -44 -38 -50 -35 -32 -174 -295 -174 -329 0 -8 -4 -18 -10 -21 -5 -3 -10 1
-10 10 0 9 -18 59 -40 111 -79 186 -198 361 -344 506 -37 37 -44 48 -30 49 11
0 30 2 44 4 14 2 79 6 145 10 66 4 121 8 122 9 4 3 208 -2 306 -8z m-656 -118
c45 -46 96 -101 113 -123 17 -22 38 -49 47 -59 31 -38 104 -156 137 -223 54
-108 79 -179 100 -278 18 -81 12 -377 -9 -459 -34 -131 -111 -262 -218 -369
-76 -75 -141 -121 -249 -172 l-71 -34 -36 61 c-40 68 -152 188 -221 235 -54
36 -150 86 -150 77 0 -4 -6 -2 -12 4 -43 33 -281 60 -366 41 -20 -4 -48 -10
-62 -13 -151 -29 -324 -139 -426 -271 -202 -260 -210 -623 -19 -890 78 -109
154 -175 285 -248 31 -16 32 -19 16 -36 -9 -9 -16 -23 -16 -29 0 -7 -3 -12 -8
-12 -4 0 -13 -12 -20 -27 -22 -50 -115 -154 -192 -215 -74 -58 -211 -131 -270
-143 -8 -2 -27 -8 -42 -14 -16 -6 -28 -9 -28 -6 0 2 -15 -1 -32 -6 -35 -10
-279 -12 -338 -3 -172 28 -427 150 -575 275 -96 81 -180 164 -233 232 l-30 37
20 88 c10 48 21 95 23 104 26 119 116 393 167 508 197 443 419 771 738 1090
418 418 903 704 1480 873 75 22 189 50 259 63 13 3 40 8 60 13 89 18 91 17
178 -71z m1256 26 c510 -125 1006 -379 1404 -720 89 -76 316 -304 383 -383
296 -354 504 -726 645 -1156 52 -156 96 -332 120 -472 6 -40 5 -44 -42 -94
-26 -29 -64 -68 -83 -87 -72 -70 -292 -232 -318 -232 -6 0 -12 -3 -14 -7 -7
-17 -214 -106 -272 -117 -11 -3 -46 -10 -76 -16 -66 -14 -293 -14 -372 1 -90
16 -278 91 -278 110 0 5 -5 9 -11 9 -17 0 -80 51 -147 119 -80 81 -138 169
-180 271 l-19 45 61 35 c70 40 187 152 235 225 36 54 91 168 91 189 0 7 3 16
7 20 4 3 8 14 9 24 1 9 6 37 10 62 29 173 -16 399 -103 518 -13 17 -22 32 -19
32 14 0 -116 135 -170 177 -76 60 -243 127 -344 140 -87 10 -196 5 -280 -12
-35 -8 -134 -46 -173 -67 -133 -72 -238 -176 -309 -305 l-34 -63 -60 37 c-93
57 -161 115 -236 201 -16 18 -28 35 -28 39 0 4 -9 16 -19 27 -16 17 -83 139
-86 156 -1 3 -11 36 -23 73 -12 38 -20 73 -17 77 3 5 1 11 -3 14 -5 3 -7 34
-5 68 2 35 5 122 5 193 0 91 5 138 14 158 8 15 12 27 9 27 -10 0 50 149 93
230 39 73 95 164 112 180 3 3 25 30 48 60 54 68 131 149 184 192 22 18 49 41
61 51 24 20 30 19 230 -29z m-799 -1286 c10 -47 67 -156 121 -233 99 -139 247
-259 400 -325 49 -21 64 -17 65 16 0 6 7 17 15 24 8 7 12 16 9 21 -11 19 63
127 140 204 102 101 212 160 341 183 49 8 199 9 240 0 61 -12 90 -21 103 -31
6 -5 12 -6 12 -3 0 10 96 -42 155 -84 64 -45 155 -139 155 -160 0 -5 4 -10 8
-10 7 0 55 -97 83 -165 49 -122 30 -373 -37 -495 -57 -104 -173 -240 -204
-240 -6 0 -10 -3 -10 -8 0 -9 -68 -47 -85 -47 -6 0 -17 -6 -25 -13 -8 -7 -24
-19 -34 -26 -23 -15 -22 -17 45 -171 45 -104 180 -273 270 -340 8 -5 30 -22
49 -36 19 -14 77 -46 129 -71 85 -41 91 -46 66 -52 -40 -10 -156 -69 -222
-113 -75 -49 -197 -171 -251 -250 -23 -34 -42 -64 -42 -67 0 -3 -12 -27 -28
-53 -15 -26 -28 -59 -30 -73 -3 -23 3 -28 50 -44 82 -29 123 -55 213 -135 73
-65 138 -168 178 -285 17 -50 20 -84 20 -191 0 -111 -4 -161 -13 -172 -2 -2
-4 -7 -5 -13 -1 -5 -3 -11 -5 -12 -1 -2 -3 -11 -5 -20 -5 -28 -56 -131 -83
-168 -46 -63 -146 -154 -212 -193 -129 -75 -277 -104 -430 -84 -25 3 -46 6
-47 6 -2 1 -6 1 -10 2 -45 6 -194 77 -247 118 -70 53 -191 200 -191 231 0 3
-10 22 -22 42 -25 42 -25 42 -140 -6 -122 -51 -226 -121 -315 -212 -53 -56
-128 -148 -128 -159 0 -3 -11 -22 -24 -43 -12 -20 -24 -39 -24 -42 -1 -3 -9
-23 -18 -45 -11 -26 -19 -35 -22 -25 -50 150 -190 342 -317 435 -22 17 -42 32
-45 35 -3 3 -16 11 -29 18 -13 8 -40 23 -60 34 -20 11 -55 29 -78 39 l-43 18
-20 -39 c-11 -22 -18 -40 -15 -40 8 0 -44 -90 -67 -116 -10 -11 -18 -24 -18
-28 0 -10 -86 -94 -130 -128 -44 -33 -165 -93 -205 -102 -16 -3 -41 -9 -55
-12 -96 -22 -246 -13 -346 21 -113 38 -226 118 -306 215 -29 36 -110 173 -107
183 0 1 -2 9 -5 17 -38 111 -43 287 -11 395 1 6 4 15 5 20 9 32 64 142 89 178
46 66 149 167 171 167 6 0 10 4 10 9 0 8 55 36 72 36 4 0 13 6 19 13 7 6 19
12 25 12 36 0 15 88 -52 220 -95 188 -285 359 -483 435 l-54 21 64 24 c35 13
80 33 99 45 19 12 37 22 40 21 3 0 32 18 65 41 79 54 160 133 222 214 55 72
136 225 128 240 -3 4 -23 16 -43 24 -66 29 -122 58 -142 74 -11 9 -34 27 -52
40 -49 35 -118 123 -160 201 -21 39 -35 70 -32 70 4 0 2 6 -4 13 -6 6 -10 14
-10 17 0 3 -5 25 -12 50 -19 70 -21 206 -4 289 44 212 181 381 385 475 90 41
116 47 244 52 268 9 501 -129 615 -364 16 -33 33 -63 39 -66 13 -8 139 38 209
77 182 99 335 262 412 439 25 57 29 61 34 36z m-3384 -1537 c0 -13 112 -123
195 -190 70 -58 218 -161 231 -161 3 0 19 -9 35 -21 16 -11 29 -18 29 -15 0 3
23 -6 51 -20 27 -14 73 -34 102 -43 l52 -18 -38 -12 c-21 -7 -44 -14 -50 -15
-19 -4 -68 -25 -109 -46 -20 -10 -38 -17 -41 -14 -2 2 -10 -2 -17 -11 -7 -8
-17 -15 -22 -15 -36 0 -265 -168 -378 -277 l-65 -63 -7 38 c-27 150 -26 570 2
784 5 40 10 81 10 91 0 17 20 25 20 8z m6775 -251 c13 -172 6 -562 -10 -613
-2 -7 -6 -39 -9 -71 -6 -59 -15 -82 -23 -59 -8 22 -146 154 -228 218 -143 112
-303 203 -413 236 -48 14 -45 18 34 45 59 20 218 96 222 106 2 5 8 8 14 8 30
0 248 171 352 276 l41 41 6 -41 c4 -22 10 -88 14 -146z m-5580 -290 c44 -11
85 -22 90 -23 26 -7 129 -59 181 -92 77 -49 189 -163 240 -245 48 -76 86 -150
78 -150 -4 0 -1 -7 6 -15 14 -16 6 -35 -16 -35 -8 0 -14 -4 -14 -10 0 -5 -6
-10 -14 -10 -13 0 -108 -72 -152 -115 -96 -93 -184 -261 -201 -380 -3 -22 -8
-49 -12 -60 -8 -24 -6 -134 4 -195 4 -25 8 -54 10 -65 16 -101 98 -250 189
-344 119 -125 227 -184 411 -225 50 -11 192 -13 252 -3 85 14 253 77 261 99 2
4 8 8 14 8 16 0 79 51 138 111 71 72 79 83 120 154 18 33 35 62 37 65 4 5 93
-42 93 -50 0 -3 13 -11 29 -18 41 -18 160 -137 212 -212 60 -86 113 -197 124
-259 3 -19 9 -41 14 -50 4 -9 7 -97 6 -197 -2 -151 -6 -202 -20 -254 -1 -3 -5
-22 -9 -43 -5 -20 -12 -40 -17 -43 -5 -3 -9 -12 -9 -20 0 -8 -13 -42 -29 -75
-17 -32 -27 -59 -23 -59 4 0 2 -4 -4 -8 -6 -4 -24 -32 -42 -62 -74 -131 -235
-319 -349 -408 l-41 -32 -119 25 c-317 67 -669 203 -968 373 -569 325 -1059
843 -1355 1431 -131 263 -248 599 -295 851 -2 14 -9 49 -15 79 -5 29 -10 58
-10 64 0 20 209 214 300 279 166 118 360 203 527 231 113 19 280 14 378 -13z
m4700 -34 c65 -7 191 -49 284 -94 80 -38 253 -151 311 -202 146 -130 231 -228
232 -267 1 -84 -126 -511 -202 -677 -11 -25 -20 -47 -20 -51 0 -14 -145 -294
-201 -387 -258 -429 -647 -836 -1054 -1100 -318 -206 -643 -353 -980 -443
-113 -30 -328 -75 -358 -75 -43 0 -233 206 -333 362 -67 103 -144 268 -159
338 -2 8 -10 42 -17 75 -12 50 -15 104 -9 125 1 3 2 66 2 140 0 117 3 145 25
214 73 230 215 394 440 510 39 20 75 36 81 36 6 0 30 -30 53 -67 113 -179 300
-305 505 -341 90 -16 294 -4 338 19 9 5 17 7 17 5 0 -12 130 52 195 95 314
210 420 620 249 961 -67 133 -175 244 -311 319 l-61 35 19 24 c10 14 19 29 19
33 0 13 81 119 133 174 77 81 231 178 332 209 109 34 149 39 281 37 76 -1 162
-4 189 -7z m-2504 -2771 c67 -164 196 -348 352 -506 31 -31 35 -39 20 -40 -10
0 -27 -2 -38 -5 -112 -22 -567 -22 -730 1 -40 6 -88 12 -113 14 -8 0 19 34 60
73 91 90 161 173 218 258 24 36 48 68 54 72 6 4 7 8 2 8 -5 0 -2 8 6 18 18 22
83 154 80 165 -1 4 3 7 10 7 6 0 9 3 5 6 -3 3 0 20 5 37 l11 31 13 -30 c7 -16
27 -65 45 -109z"/>
<path d="M2479 6265 c-2 -2 -31 -7 -64 -10 -137 -16 -370 -91 -520 -168 -228
-117 -381 -231 -585 -436 -320 -322 -541 -713 -656 -1160 -19 -74 -37 -150
-40 -170 -3 -20 -7 -42 -10 -50 -4 -13 43 -97 51 -89 1 1 5 23 8 48 29 234
135 565 252 785 206 387 465 680 800 903 384 256 829 355 1174 262 40 -10 46
-10 64 9 l21 20 -30 11 c-70 28 -169 42 -310 45 -84 2 -153 2 -155 0z"/>
<path d="M4092 6242 l-34 -28 38 -2 c21 -2 57 -7 79 -12 22 -5 56 -12 75 -15
19 -3 43 -8 52 -11 9 -3 26 -7 37 -9 12 -3 30 -7 42 -10 122 -27 354 -116 519
-201 648 -331 1129 -961 1187 -1554 14 -144 5 -314 -22 -404 -19 -63 -19 -63
6 -76 26 -15 27 -13 45 51 24 90 29 147 28 309 0 284 -76 537 -244 821 -275
465 -742 844 -1284 1044 -103 38 -368 109 -446 119 -39 6 -49 3 -78 -22z"/>
<path d="M4657 5404 c-1 -1 -20 -5 -42 -8 -69 -11 -109 -25 -198 -71 -56 -29
-185 -132 -186 -148 -1 -5 -14 -25 -30 -45 -49 -61 -93 -169 -107 -262 -50
-322 142 -621 461 -717 89 -26 248 -24 345 6 102 31 202 91 278 168 34 34 60
63 57 63 -3 0 5 15 19 33 22 28 66 115 72 140 1 4 2 8 4 10 19 24 31 233 17
317 -10 69 -57 175 -106 244 -96 135 -245 231 -406 262 -35 6 -173 13 -178 8z"/>
<path d="M2125 5379 c-27 -6 -57 -12 -65 -13 -70 -14 -212 -96 -270 -157 -53
-56 -90 -99 -90 -105 0 -3 -8 -18 -18 -32 -48 -70 -88 -220 -86 -322 2 -106
13 -155 55 -255 7 -16 13 -32 13 -35 5 -23 90 -131 142 -179 209 -191 527
-219 764 -66 237 152 346 428 276 695 -27 105 -69 185 -141 268 -28 33 -133
113 -180 139 -107 57 -287 85 -400 62z"/>
<path d="M4610 2887 c-252 -67 -433 -254 -483 -501 -22 -107 -8 -255 33 -352
10 -23 16 -45 13 -48 -4 -3 -1 -6 5 -6 7 0 12 -4 12 -9 0 -20 66 -108 120
-161 70 -68 163 -124 255 -153 56 -18 92 -22 185 -21 63 0 124 3 136 6 141 40
222 85 315 177 123 123 189 288 184 458 -1 48 -5 99 -8 112 -22 84 -41 138
-63 172 -13 21 -24 41 -24 44 0 11 -65 88 -104 124 -82 76 -185 132 -288 156
-66 15 -234 17 -288 2z"/>
<path d="M2190 2873 c-99 -13 -212 -56 -299 -116 -45 -30 -141 -125 -141 -138
0 -4 -6 -14 -14 -21 -31 -32 -83 -157 -103 -248 -9 -41 -10 -162 -2 -200 4
-19 11 -48 14 -65 3 -16 7 -34 8 -40 7 -27 59 -130 88 -172 32 -47 127 -143
140 -143 4 0 14 -6 21 -14 22 -21 108 -62 180 -86 108 -35 303 -30 393 9 61
26 120 57 123 64 2 4 9 7 15 7 38 0 248 255 231 281 -3 5 -1 9 3 9 9 0 31 68
41 125 3 17 5 77 4 135 -1 89 -5 117 -30 186 -91 252 -319 422 -577 428 -38 1
-81 1 -95 -1z"/>
<path d="M856 2952 c-18 -63 -34 -135 -42 -197 -6 -42 -6 -254 0 -290 2 -16 7
-50 11 -75 20 -134 78 -313 152 -469 216 -454 644 -865 1148 -1102 158 -74
410 -162 525 -183 14 -2 54 -11 90 -18 36 -8 70 -13 75 -13 14 1 75 38 75 46
0 6 -36 13 -133 25 -16 2 -65 13 -110 25 -45 11 -91 23 -101 25 -31 6 -175 54
-253 85 -659 259 -1184 793 -1367 1389 -73 239 -83 481 -28 702 9 33 7 39 -14
52 -21 14 -23 14 -28 -2z"/>
<path d="M6229 2898 c-11 -185 -123 -547 -244 -788 -214 -426 -572 -807 -950
-1012 -250 -135 -513 -209 -750 -209 -120 0 -154 3 -263 28 -70 15 -73 15 -86
-3 -8 -10 -12 -22 -10 -25 3 -6 91 -29 169 -45 17 -3 88 -7 158 -8 375 -8 765
140 1122 424 93 75 258 236 336 330 30 36 57 67 60 70 16 13 162 235 212 322
130 226 239 524 291 795 13 71 13 73 -11 108 -28 41 -33 43 -34 13z"/>
<path d="M255 6949 c-4 -6 -5 -12 -2 -15 2 -3 7 2 10 11 7 17 1 20 -8 4z"/>
<path d="M6856 6741 c-4 -5 3 -7 14 -4 23 6 26 13 6 13 -8 0 -17 -4 -20 -9z"/>
<path d="M6908 6743 c7 -3 16 -2 19 1 4 3 -2 6 -13 5 -11 0 -14 -3 -6 -6z"/>
<path d="M68 263 c12 -2 32 -2 45 0 12 2 2 4 -23 4 -25 0 -35 -2 -22 -4z"/>
<path d="M6723 95 c0 -27 2 -38 4 -22 2 15 2 37 0 50 -2 12 -4 0 -4 -28z"/>
</g>
</svg>
